<svg id="inner-logo" xmlns="http://www.w3.org/2000/svg" width="293.79" height="342.81" viewBox="0 0 293.79 342.81">
  <g id="UMM-Logo" transform="translate(-473.79 -154.38)">
    <path id="Path_1" data-name="Path 1" d="M591.8,316.05l9.85-30.54L610,316.53l29.28,10.28-29.74,8.71-9.85,30.54-8.35-31.02-29.28-10.27Z" fill="#ebd11a"/>
    <path id="Path_2" data-name="Path 2" d="M553.89,272.22l2.96-10.01,2.96,10.01,9.6,3.09-9.6,3.09-2.96,10.01-2.96-10.01-9.59-3.09Z" fill="#ebd11a"/>
    <path id="Path_3" data-name="Path 3" d="M652.08,387.42l2.96-10.01L658,387.42l9.6,3.09L658,393.6l-2.96,10.01-2.96-10.01-9.6-3.09Z" fill="#ebd11a"/>
    <path id="Path_4" data-name="Path 4" d="M690.74,328.93l2.16-7.32,2.16,7.32,7.02,2.26-7.02,2.25-2.16,7.32-2.16-7.32-7.02-2.25Z" fill="#ebd11a"/>
    <path id="Path_5" data-name="Path 5" d="M557.84,380.62l2.16-7.31,2.16,7.31,7.02,2.26-7.02,2.26L560,392.45l-2.16-7.31-7.02-2.26Z" fill="#ebd11a"/>
    <g id="Group_1" data-name="Group 1">
      <path id="Path_6" data-name="Path 6" d="M619.39,497.19l-.66-.4L491.41,420.08V398.13l-17.62-10.61V232.12l129.03-77.74,17.86,10.76,17.86-10.76,129.04,77.74V387.51l-20.21,12.18v20.39l-.62.37ZM493.97,418.63l125.41,75.56,125.41-75.56V401.24L638.53,465.26,620.67,454.5l-17.86,10.76L493.96,399.68v18.95Zm0-21.95,108.85,65.58L618.19,453,509.5,387.52V258.06l-15.53,9.36ZM623.17,453l15.37,9.26L744.8,398.24V267.42l-12.94-7.8v127.9Zm-111.1-66.93,108.61,65.44,108.61-65.44v-128l-109.9-66.22L512.07,256.51V386.07ZM731.86,256.62l15.51,9.34V396.7l17.64-10.63V233.57l-126.47-76.2-15.37,9.26,108.69,65.48v24.51ZM476.35,386.07l15.05,9.07V265.97l18.1-10.9V232.13l108.69-65.48-15.37-9.26-126.47,76.2ZM619.39,188.86l109.9,66.22v-21.5L620.68,168.14,512.07,233.58v19.94Z" fill="#fff"/>
    </g>
    <path id="Path_7" data-name="Path 7" d="M627.19,268.61l18.39-5.92,5.67-19.18,5.67,19.18,18.38,5.92-18.38,5.91-5.67,19.18-5.67-19.18Z" fill="#ebd11a"/>
  </g>
</svg>
